<svg xmlns="http://www.w3.org/2000/svg" viewBox="0 0 600 160" width="600" height="160" role="img" aria-label="PowerfulTS">
  <defs>
    <!-- 主标题文字渐变 -->
    <linearGradient id="textGrad" x1="0" y1="0" x2="1" y2="0">
      <stop offset="0" stop-color="#011e4d"/>
      <stop offset="0.55" stop-color="#0951ae"/>
      <stop offset="1" stop-color="#116ce0"/>
    </linearGradient>
    <!-- 图标柔和落影 -->
    <filter id="shadow" x="-30%" y="-30%" width="160%" height="160%">
      <feGaussianBlur in="SourceAlpha" stdDeviation="5"/>
      <feOffset dy="5" result="o"/>
      <feComponentTransfer><feFuncA type="linear" slope="0.28"/></feComponentTransfer>
      <feMerge>
        <feMergeNode/>
        <feMergeNode in="SourceGraphic"/>
      </feMerge>
    </filter>
  </defs>

  <!-- ── 图标 mark (耳机 logo) ── -->
  <svg x="8" y="8" width="144" height="144" viewBox="0 0 1254 1254" filter="url(#shadow)">
    <g transform="translate(0.000000,1254.000000) scale(0.100000,-0.100000)">
      <g fill="#011e4d" stroke="none">
        <path d="M6150 11514 c-559 -27 -1065 -135 -1490 -318 -107 -47 -390 -193
-467 -242 -472 -301 -830 -631 -1149 -1059 -98 -132 -214 -303 -214 -316 0 -5
18 -32 40 -60 22 -28 40 -56 40 -62 0 -7 -34 -68 -76 -137 -224 -372 -412
-827 -513 -1245 -58 -238 -63 -255 -73 -261 -5 -3 -38 -12 -73 -19 -206 -43
-418 -187 -544 -369 -64 -92 -102 -178 -133 -292 l-23 -89 0 -795 0 -795 27
-96 c81 -298 307 -543 602 -654 110 -41 197 -55 393 -62 l183 -6 0 89 c0 49 2
244 5 434 2 190 7 786 9 1325 6 1092 8 1127 77 1420 184 780 608 1515 1158
2009 616 554 1292 840 2121 897 352 24 711 -7 1050 -91 623 -156 1170 -462
1616 -905 435 -433 757 -966 973 -1613 46 -139 111 -406 126 -517 3 -22 10
-74 17 -115 7 -51 12 -424 13 -1165 2 -599 4 -1281 5 -1515 2 -418 2 -427 -24
-575 -45 -258 -115 -470 -240 -730 -182 -378 -427 -665 -670 -787 l-81 -41
-40 22 c-75 39 -124 50 -223 52 -263 3 -528 -111 -653 -280 -62 -85 -78 -131
-78 -227 -1 -68 3 -88 26 -134 34 -68 93 -127 169 -167 78 -41 120 -52 234
-59 84 -6 109 -3 205 21 237 60 409 188 465 347 10 29 24 56 32 60 7 4 48 23
91 44 452 215 867 760 1066 1399 69 223 109 400 136 610 9 72 19 145 21 162 4
29 10 34 47 43 187 47 333 134 471 280 144 153 232 329 256 510 5 42 9 394 10
810 0 792 -3 848 -52 982 -78 209 -255 407 -453 503 -62 31 -100 43 -247 77
-37 9 -46 21 -53 76 -6 46 -84 341 -121 462 -102 327 -298 752 -470 1018 -30
45 -54 87 -54 93 0 6 18 32 40 58 22 26 40 53 40 60 0 18 -134 219 -230 346
-397 525 -895 942 -1440 1207 -403 195 -883 331 -1305 367 -136 12 -463 20
-575 15z M6175 9173 c-131 -8 -398 -48 -570 -83 -519 -108 -930 -233 -1345
-410 -133 -57 -575 -276 -586 -291 -22 -30 -136 -455 -173 -652 -21 -106 -21
-136 -21 -1413 l0 -1305 32 -38 c18 -21 119 -136 223 -256 275 -316 246 -270
283 -441 18 -82 48 -216 67 -299 19 -82 59 -260 89 -395 30 -135 68 -303 85
-375 l29 -129 94 -91 c51 -50 219 -210 372 -355 154 -146 455 -435 669 -642
l389 -378 471 0 471 0 345 343 c419 414 621 612 934 912 130 125 240 237 242
249 3 12 19 84 35 161 17 77 39 178 50 225 11 47 35 159 54 250 19 91 54 248
76 350 23 102 48 217 56 255 8 39 22 81 31 95 18 28 112 138 336 393 l147 169
-3 1337 -3 1336 -36 145 c-53 208 -114 436 -135 500 l-18 55 -220 110 c-332
167 -584 272 -916 380 -304 99 -833 225 -1074 255 -112 15 -380 40 -405 38
-14 -1 -47 -3 -75 -5z M2836 7667 c-13 -19 -15 -212 -16 -1500 -1 -1201 1
-1481 11 -1494 21 -24 131 -13 196 21 84 42 187 146 228 230 66 134 65 99 65
1261 0 1163 2 1116 -66 1245 -40 76 -123 167 -187 204 -45 27 -144 56 -189 56
-18 0 -33 -8 -42 -23z M9588 7679 c-152 -22 -318 -202 -357 -387 -8 -37 -11
-368 -11 -1115 0 -912 2 -1071 15 -1126 46 -194 232 -375 399 -388 76 -7 84 2
86 82 6 371 -2 2900 -10 2914 -11 22 -56 29 -122 20z"/>
      </g>
      <g fill="#0951ae" stroke="none">
        <path d="M6150 11514 c-559 -27 -1065 -135 -1490 -318 -107 -47 -390 -193
-467 -242 -472 -301 -830 -631 -1149 -1059 -98 -132 -214 -303 -214 -316 0 -5
18 -32 40 -60 22 -28 40 -56 40 -62 0 -7 -34 -68 -76 -137 -224 -372 -412
-827 -513 -1245 -58 -238 -63 -255 -73 -261 -5 -3 -38 -12 -73 -19 -206 -43
-418 -187 -544 -369 -64 -92 -102 -178 -133 -292 l-23 -89 0 -795 0 -795 27
-96 c81 -298 307 -543 602 -654 110 -41 197 -55 393 -62 l183 -6 0 89 c0 49 2
244 5 434 2 190 7 786 9 1325 6 1092 8 1127 77 1420 184 780 608 1515 1158
2009 616 554 1292 840 2121 897 352 24 711 -7 1050 -91 623 -156 1170 -462
1616 -905 435 -433 757 -966 973 -1613 46 -139 111 -406 126 -517 3 -22 10
-74 17 -115 7 -51 12 -424 13 -1165 2 -599 4 -1281 5 -1515 2 -418 2 -427 -24
-575 -45 -258 -115 -470 -240 -730 -182 -378 -427 -665 -670 -787 l-81 -41
-40 22 c-75 39 -124 50 -223 52 -263 3 -528 -111 -653 -280 -62 -85 -78 -131
-78 -227 -1 -68 3 -88 26 -134 34 -68 93 -127 169 -167 78 -41 120 -52 234
-59 84 -6 109 -3 205 21 237 60 409 188 465 347 10 29 24 56 32 60 7 4 48 23
91 44 452 215 867 760 1066 1399 76 247 128 491 150 714 6 52 14 87 22 92 11
7 11 9 1 9 -10 0 -12 18 -10 72 l3 72 55 16 c30 9 93 36 140 60 68 34 102 61
180 139 108 109 173 219 213 357 l22 79 0 1004 0 1004 -70 75 c-85 92 -177
162 -270 207 -62 31 -100 43 -247 77 -37 9 -46 21 -53 76 -6 46 -84 341 -121
462 -102 327 -298 752 -470 1018 -30 45 -54 87 -54 93 0 6 18 32 40 58 22 26
40 53 40 60 0 18 -134 219 -230 346 -397 525 -895 942 -1440 1207 -403 195
-883 331 -1305 367 -136 12 -463 20 -575 15z M6175 9173 c-131 -8 -398 -48
-570 -83 -519 -108 -930 -233 -1345 -410 -133 -57 -575 -276 -586 -291 -22
-30 -136 -455 -173 -650 -20 -103 -20 -144 -21 -1025 0 -506 0 -1094 0 -1309
l1 -390 137 -156 c75 -86 187 -214 247 -285 61 -70 151 -173 200 -228 227
-254 222 -248 240 -317 9 -35 59 -215 110 -399 51 -184 98 -354 104 -377 8
-28 31 -63 70 -105 32 -35 148 -160 258 -278 110 -118 285 -308 389 -421 104
-113 286 -310 404 -437 l215 -232 421 0 421 0 115 123 c138 147 497 537 902
979 l300 327 119 442 119 442 51 60 c29 33 77 88 107 122 141 160 175 198 266
305 54 63 162 189 241 278 l143 164 -3 1336 -3 1337 -36 145 c-53 208 -114
436 -135 500 l-18 55 -220 110 c-332 167 -584 272 -916 380 -304 99 -833 225
-1074 255 -112 15 -380 40 -405 38 -14 -1 -47 -3 -75 -5z"/>
      </g>
      <g fill="#116ce0" stroke="none">
        <path d="M6150 11514 c-559 -27 -1065 -135 -1490 -318 -107 -47 -390 -193
-467 -242 -472 -301 -830 -631 -1149 -1059 -98 -132 -214 -303 -214 -316 0 -5
18 -32 40 -60 22 -28 40 -56 40 -62 0 -7 -34 -68 -76 -137 -224 -372 -412
-827 -513 -1245 -58 -238 -63 -255 -73 -261 -5 -3 -38 -12 -73 -19 -163 -34
-310 -119 -447 -256 l-88 -87 -2 -814 c-3 -1233 -4 -1180 21 -1273 31 -116 91
-213 187 -304 44 -42 107 -90 140 -108 152 -80 334 -122 554 -129 l145 -5 2
343 c1 189 5 784 7 1323 6 1092 8 1127 77 1420 184 780 608 1515 1158 2009
616 554 1292 840 2121 897 352 24 711 -7 1050 -91 623 -156 1170 -462 1616
-905 435 -433 757 -966 973 -1613 46 -139 111 -406 126 -517 3 -22 10 -74 17
-115 7 -51 12 -424 13 -1165 2 -599 4 -1281 5 -1515 2 -418 2 -427 -24 -575
-45 -258 -115 -470 -240 -730 -182 -378 -427 -665 -670 -787 l-81 -41 -40 22
c-75 39 -124 50 -223 52 -263 3 -528 -111 -653 -280 -62 -85 -78 -131 -78
-227 -1 -68 3 -88 26 -134 34 -68 93 -127 169 -167 78 -41 120 -52 234 -59 84
-6 109 -3 205 21 237 60 409 188 465 347 10 29 24 56 32 60 7 4 48 23 91 44
452 215 867 760 1066 1399 76 247 128 491 150 714 6 52 14 87 22 92 11 7 11 9
1 9 -10 0 -12 18 -10 72 l3 72 55 16 c30 9 93 36 140 60 68 34 102 61 180 139
108 109 173 219 213 357 l22 79 0 1004 0 1004 -70 75 c-85 92 -177 162 -270
207 -62 31 -100 43 -247 77 -37 9 -46 21 -53 76 -6 46 -84 341 -121 462 -102
327 -298 752 -470 1018 -30 45 -54 87 -54 93 0 6 18 32 40 58 22 26 40 53 40
60 0 18 -134 219 -230 346 -397 525 -895 942 -1440 1207 -403 195 -883 331
-1305 367 -136 12 -463 20 -575 15z M6175 9173 c-131 -8 -398 -48 -570 -83
-519 -108 -930 -233 -1345 -410 -133 -57 -575 -276 -586 -291 -22 -30 -136
-455 -173 -650 -20 -103 -20 -144 -21 -1025 0 -506 0 -1094 0 -1309 l1 -390
137 -156 c75 -86 187 -214 247 -285 61 -70 151 -173 200 -228 227 -254 222
-248 240 -317 9 -35 59 -215 110 -399 51 -184 98 -354 104 -377 8 -28 31 -63
70 -105 32 -35 148 -160 258 -278 110 -118 285 -308 389 -421 104 -113 286
-310 404 -437 l215 -232 421 0 421 0 115 123 c138 147 497 537 902 979 l300
327 119 442 119 442 51 60 c29 33 77 88 107 122 141 160 175 198 266 305 54
63 162 189 241 278 l143 164 -3 1336 -3 1337 -36 145 c-53 208 -114 436 -135
500 l-18 55 -220 110 c-332 167 -584 272 -916 380 -304 99 -833 225 -1074 255
-112 15 -380 40 -405 38 -14 -1 -47 -3 -75 -5z"/>
      </g>
      <g fill="#5293e2" stroke="none">
        <path d="M6278 11513 c34 -2 90 -2 125 0 34 2 6 3 -63 3 -69 0 -97 -1 -62 -3z
M6018 11503 c12 -2 30 -2 40 0 9 3 -1 5 -23 4 -22 0 -30 -2 -17 -4z"/>
      </g>
    </g>
  </svg>

  <!-- ── 文字 ── -->
  <text x="180" y="82" font-family="ui-sans-serif, system-ui, -apple-system, 'Segoe UI', Roboto, Helvetica, Arial, sans-serif"
        font-size="58" font-weight="800" letter-spacing="-1.5" fill="url(#textGrad)">PowerfulTS</text>
  <text x="183" y="112" font-family="ui-sans-serif, system-ui, -apple-system, 'Segoe UI', Roboto, Helvetica, Arial, sans-serif"
        font-size="18" font-weight="600" letter-spacing="4" fill="#64748b">TS3 · MONITORING DASHBOARD</text>
</svg>
