<?xml version="1.0" standalone="no"?>
<svg version="1.0" xmlns="http://www.w3.org/2000/svg"
 width="1254" height="1254" viewBox="0 0 1254 1254"
 preserveAspectRatio="xMidYMid meet">
<g transform="translate(0.000000,1254.000000) scale(0.100000,-0.100000)">
<g fill="#011e4d" stroke="none">
<path d="M6150 11514 c-559 -27 -1065 -135 -1490 -318 -107 -47 -390 -193
-467 -242 -472 -301 -830 -631 -1149 -1059 -98 -132 -214 -303 -214 -316 0 -5
18 -32 40 -60 22 -28 40 -56 40 -62 0 -7 -34 -68 -76 -137 -224 -372 -412
-827 -513 -1245 -58 -238 -63 -255 -73 -261 -5 -3 -38 -12 -73 -19 -206 -43
-418 -187 -544 -369 -64 -92 -102 -178 -133 -292 l-23 -89 0 -795 0 -795 27
-96 c81 -298 307 -543 602 -654 110 -41 197 -55 393 -62 l183 -6 0 89 c0 49 2
244 5 434 2 190 7 786 9 1325 6 1092 8 1127 77 1420 184 780 608 1515 1158
2009 616 554 1292 840 2121 897 352 24 711 -7 1050 -91 623 -156 1170 -462
1616 -905 435 -433 757 -966 973 -1613 46 -139 111 -406 126 -517 3 -22 10
-74 17 -115 7 -51 12 -424 13 -1165 2 -599 4 -1281 5 -1515 2 -418 2 -427 -24
-575 -45 -258 -115 -470 -240 -730 -182 -378 -427 -665 -670 -787 l-81 -41
-40 22 c-75 39 -124 50 -223 52 -263 3 -528 -111 -653 -280 -62 -85 -78 -131
-78 -227 -1 -68 3 -88 26 -134 34 -68 93 -127 169 -167 78 -41 120 -52 234
-59 84 -6 109 -3 205 21 237 60 409 188 465 347 10 29 24 56 32 60 7 4 48 23
91 44 452 215 867 760 1066 1399 69 223 109 400 136 610 9 72 19 145 21 162 4
29 10 34 47 43 187 47 333 134 471 280 144 153 232 329 256 510 5 42 9 394 10
810 0 792 -3 848 -52 982 -78 209 -255 407 -453 503 -62 31 -100 43 -247 77
-37 9 -46 21 -53 76 -6 46 -84 341 -121 462 -102 327 -298 752 -470 1018 -30
45 -54 87 -54 93 0 6 18 32 40 58 22 26 40 53 40 60 0 18 -134 219 -230 346
-397 525 -895 942 -1440 1207 -403 195 -883 331 -1305 367 -136 12 -463 20
-575 15z M6175 9173 c-131 -8 -398 -48 -570 -83 -519 -108 -930 -233 -1345
-410 -133 -57 -575 -276 -586 -291 -22 -30 -136 -455 -173 -652 -21 -106 -21
-136 -21 -1413 l0 -1305 32 -38 c18 -21 119 -136 223 -256 275 -316 246 -270
283 -441 18 -82 48 -216 67 -299 19 -82 59 -260 89 -395 30 -135 68 -303 85
-375 l29 -129 94 -91 c51 -50 219 -210 372 -355 154 -146 455 -435 669 -642
l389 -378 471 0 471 0 345 343 c419 414 621 612 934 912 130 125 240 237 242
249 3 12 19 84 35 161 17 77 39 178 50 225 11 47 35 159 54 250 19 91 54 248
76 350 23 102 48 217 56 255 8 39 22 81 31 95 18 28 112 138 336 393 l147 169
-3 1337 -3 1336 -36 145 c-53 208 -114 436 -135 500 l-18 55 -220 110 c-332
167 -584 272 -916 380 -304 99 -833 225 -1074 255 -112 15 -380 40 -405 38
-14 -1 -47 -3 -75 -5z M2836 7667 c-13 -19 -15 -212 -16 -1500 -1 -1201 1
-1481 11 -1494 21 -24 131 -13 196 21 84 42 187 146 228 230 66 134 65 99 65
1261 0 1163 2 1116 -66 1245 -40 76 -123 167 -187 204 -45 27 -144 56 -189 56
-18 0 -33 -8 -42 -23z M9588 7679 c-152 -22 -318 -202 -357 -387 -8 -37 -11
-368 -11 -1115 0 -912 2 -1071 15 -1126 46 -194 232 -375 399 -388 76 -7 84 2
86 82 6 371 -2 2900 -10 2914 -11 22 -56 29 -122 20z"/>
</g><g fill="#0951ae" stroke="none">
<path d="M6150 11514 c-559 -27 -1065 -135 -1490 -318 -107 -47 -390 -193
-467 -242 -472 -301 -830 -631 -1149 -1059 -98 -132 -214 -303 -214 -316 0 -5
18 -32 40 -60 22 -28 40 -56 40 -62 0 -7 -34 -68 -76 -137 -224 -372 -412
-827 -513 -1245 -58 -238 -63 -255 -73 -261 -5 -3 -38 -12 -73 -19 -206 -43
-418 -187 -544 -369 -64 -92 -102 -178 -133 -292 l-23 -89 0 -795 0 -795 27
-96 c81 -298 307 -543 602 -654 110 -41 197 -55 393 -62 l183 -6 0 89 c0 49 2
244 5 434 2 190 7 786 9 1325 6 1092 8 1127 77 1420 184 780 608 1515 1158
2009 616 554 1292 840 2121 897 352 24 711 -7 1050 -91 623 -156 1170 -462
1616 -905 435 -433 757 -966 973 -1613 46 -139 111 -406 126 -517 3 -22 10
-74 17 -115 7 -51 12 -424 13 -1165 2 -599 4 -1281 5 -1515 2 -418 2 -427 -24
-575 -45 -258 -115 -470 -240 -730 -182 -378 -427 -665 -670 -787 l-81 -41
-40 22 c-75 39 -124 50 -223 52 -263 3 -528 -111 -653 -280 -62 -85 -78 -131
-78 -227 -1 -68 3 -88 26 -134 34 -68 93 -127 169 -167 78 -41 120 -52 234
-59 84 -6 109 -3 205 21 237 60 409 188 465 347 10 29 24 56 32 60 7 4 48 23
91 44 452 215 867 760 1066 1399 69 223 109 400 136 610 9 72 19 145 21 162 4
29 10 34 47 43 187 47 333 134 471 280 144 153 232 329 256 510 5 42 9 394 10
810 0 792 -3 848 -52 982 -78 209 -255 407 -453 503 -62 31 -100 43 -247 77
-37 9 -46 21 -53 76 -6 46 -84 341 -121 462 -102 327 -298 752 -470 1018 -30
45 -54 87 -54 93 0 6 18 32 40 58 22 26 40 53 40 60 0 18 -134 219 -230 346
-397 525 -895 942 -1440 1207 -403 195 -883 331 -1305 367 -136 12 -463 20
-575 15z M6175 9173 c-131 -8 -398 -48 -570 -83 -519 -108 -930 -233 -1345
-410 -133 -57 -575 -276 -586 -291 -22 -30 -136 -455 -173 -652 -21 -106 -21
-136 -21 -1413 l0 -1305 32 -38 c18 -21 119 -136 223 -256 275 -316 246 -270
283 -441 18 -82 48 -216 67 -299 19 -82 59 -260 89 -395 30 -135 68 -303 85
-375 l29 -129 94 -91 c51 -50 219 -210 372 -355 154 -146 455 -435 669 -642
l389 -378 471 0 471 0 345 343 c419 414 621 612 934 912 130 125 240 237 242
249 3 12 19 84 35 161 17 77 39 178 50 225 11 47 35 159 54 250 19 91 54 248
76 350 23 102 48 217 56 255 8 39 22 81 31 95 18 28 112 138 336 393 l147 169
-3 1337 -3 1336 -36 145 c-53 208 -114 436 -135 500 l-18 55 -220 110 c-332
167 -584 272 -916 380 -304 99 -833 225 -1074 255 -112 15 -380 40 -405 38
-14 -1 -47 -3 -75 -5z m2209 -1839 c17 -14 113 -107 212 -205 l182 -180 1
-114 c0 -63 -3 -115 -7 -114 -4 0 -38 39 -76 85 l-68 85 -153 76 -152 76 -84
-43 c-46 -23 -109 -57 -139 -75 -348 -207 -832 -503 -1056 -646 -90 -57 -133
-79 -157 -79 -32 0 -33 2 -103 158 l-72 157 32 6 c17 4 74 10 127 14 l96 7
184 122 c157 104 497 324 897 578 78 50 122 71 185 88 45 11 87 23 92 25 20 7
28 4 59 -21z m-4381 -934 c117 -18 541 -88 1449 -238 158 -26 288 -51 288 -56
0 -5 -9 -40 -21 -79 l-21 -70 -196 7 c-109 4 -207 10 -219 13 -16 4 -25 0 -29
-13 -42 -122 -113 -207 -213 -257 -62 -30 -71 -32 -181 -32 -106 0 -120 2
-178 29 -123 57 -212 190 -212 318 0 26 -2 48 -4 48 -8 0 -579 130 -581 132
-4 5 -65 203 -65 211 0 11 43 8 183 -13z m4447 -295 c0 -36 -1 -65 -2 -66 -2
0 -86 -15 -187 -32 l-184 -33 -16 -65 c-29 -117 -94 -193 -209 -247 -50 -24
-69 -27 -157 -27 -87 0 -107 4 -158 27 -98 46 -181 144 -220 261 -6 15 -25 17
-206 17 l-199 0 -11 32 c-6 17 -10 33 -8 34 7 7 1433 159 1530 163 27 1 27 1
27 -64z m-1015 -1773 c71 -38 131 -75 133 -83 2 -11 -401 -406 -528 -516 l-35
-30 -295 -17 c-162 -9 -459 -23 -660 -31 -201 -8 -405 -17 -455 -21 -49 -3
-87 -3 -84 0 9 10 310 86 809 206 234 56 466 112 516 125 82 20 116 37 315
155 123 73 226 134 227 136 2 1 -14 29 -35 61 -52 77 -56 83 -46 83 4 0 66
-31 138 -68z"/>
</g><g fill="#116ce0" stroke="none">
<path d="M6150 11514 c-559 -27 -1065 -135 -1490 -318 -107 -47 -390 -193
-467 -242 -472 -301 -830 -631 -1149 -1059 -98 -132 -214 -303 -214 -316 0 -5
18 -32 40 -60 22 -28 40 -56 40 -62 0 -7 -34 -68 -76 -137 -224 -372 -412
-827 -513 -1245 -58 -238 -63 -255 -73 -261 -5 -3 -38 -12 -73 -19 -163 -34
-310 -119 -447 -256 l-88 -87 -2 -814 c-3 -1233 -4 -1180 21 -1273 31 -116 91
-213 187 -304 44 -42 107 -90 140 -108 152 -80 334 -122 554 -129 l145 -5 2
343 c1 189 5 784 7 1323 6 1092 8 1127 77 1420 184 780 608 1515 1158 2009
616 554 1292 840 2121 897 352 24 711 -7 1050 -91 623 -156 1170 -462 1616
-905 435 -433 757 -966 973 -1613 46 -139 111 -406 126 -517 3 -22 10 -74 17
-115 7 -51 12 -424 13 -1165 2 -599 4 -1281 5 -1515 2 -418 2 -427 -24 -575
-45 -258 -115 -470 -240 -730 -182 -378 -427 -665 -670 -787 l-81 -41 -40 22
c-75 39 -124 50 -223 52 -263 3 -528 -111 -653 -280 -62 -85 -78 -131 -78
-227 -1 -68 3 -88 26 -134 34 -68 93 -127 169 -167 78 -41 120 -52 234 -59 84
-6 109 -3 205 21 237 60 409 188 465 347 10 29 24 56 32 60 7 4 48 23 91 44
452 215 867 760 1066 1399 76 247 128 491 150 714 6 52 14 87 22 92 11 7 11 9
1 9 -10 0 -12 18 -10 72 l3 72 55 16 c30 9 93 36 140 60 68 34 102 61 180 139
108 109 173 219 213 357 l22 79 0 1004 0 1004 -70 75 c-85 92 -177 162 -270
207 -62 31 -100 43 -247 77 -37 9 -46 21 -53 76 -6 46 -84 341 -121 462 -102
327 -298 752 -470 1018 -30 45 -54 87 -54 93 0 6 18 32 40 58 22 26 40 53 40
60 0 18 -134 219 -230 346 -397 525 -895 942 -1440 1207 -403 195 -883 331
-1305 367 -136 12 -463 20 -575 15z M6175 9173 c-131 -8 -398 -48 -570 -83
-519 -108 -930 -233 -1345 -410 -133 -57 -575 -276 -586 -291 -22 -30 -136
-455 -173 -650 -20 -103 -20 -144 -21 -1025 0 -506 0 -1094 0 -1309 l1 -390
137 -156 c75 -86 187 -214 247 -285 61 -70 151 -173 200 -228 227 -254 222
-248 240 -317 9 -35 59 -215 110 -399 51 -184 98 -354 104 -377 8 -28 31 -63
70 -105 32 -35 148 -160 258 -278 110 -118 285 -308 389 -421 104 -113 286
-310 404 -437 l215 -232 421 0 421 0 115 123 c138 147 497 537 902 979 l300
327 119 442 119 442 51 60 c29 33 77 88 107 122 141 160 175 198 266 305 54
63 162 189 241 278 l143 164 -3 1336 -3 1337 -36 145 c-53 208 -114 436 -135
500 l-18 55 -220 110 c-332 167 -584 272 -916 380 -304 99 -833 225 -1074 255
-112 15 -380 40 -405 38 -14 -1 -47 -3 -75 -5z m2393 -2010 l213 -208 -3 -125
-3 -124 -75 89 c-75 88 -77 90 -225 166 l-150 77 -70 -36 c-62 -31 -140 -75
-365 -207 -108 -64 -706 -432 -846 -521 -128 -82 -171 -98 -191 -71 -16 20
-143 301 -143 315 0 6 8 12 18 12 9 0 68 5 130 10 l113 10 247 164 c136 90
400 261 586 380 316 202 345 219 430 242 50 14 96 27 101 29 6 2 12 4 15 4 3
1 101 -92 218 -206z m-4530 -763 c292 -46 1706 -280 1710 -284 2 -2 -8 -39
-21 -82 l-24 -79 -74 0 c-41 0 -140 4 -221 8 l-146 8 -12 -38 c-56 -174 -242
-288 -438 -269 -103 11 -167 40 -237 111 -70 70 -103 140 -112 236 l-6 56
-126 27 c-69 15 -200 44 -290 65 l-163 37 -32 105 c-31 103 -34 129 -15 129 6
0 99 -14 207 -30z m4417 -285 c4 -30 5 -61 2 -68 -3 -8 -45 -20 -103 -30 -55
-10 -138 -25 -186 -34 l-87 -15 -10 -49 c-30 -140 -138 -248 -285 -285 -116
-29 -240 0 -339 80 -51 40 -114 129 -127 178 l-11 38 -200 0 -199 0 -10 26
c-22 58 -22 58 138 77 81 10 197 22 257 28 61 6 319 32 575 58 256 27 491 49
522 50 l57 1 6 -55z m-1139 -1714 c5 -5 64 -36 130 -70 78 -39 123 -67 126
-79 4 -14 -28 -50 -126 -142 -72 -68 -183 -173 -246 -233 -63 -61 -131 -125
-151 -144 -34 -33 -37 -33 -160 -43 -68 -5 -331 -18 -584 -30 -253 -11 -534
-24 -625 -28 -164 -8 -189 -7 -173 8 8 9 506 133 1078 270 280 67 350 87 395
114 30 18 129 77 220 131 91 54 167 99 169 101 2 2 -17 35 -42 73 -41 62 -47
81 -27 81 3 0 10 -4 16 -9z M11065 6415 c0 -330 1 -464 2 -297 2 167 2 437 0
600 -1 163 -2 27 -2 -303z M1475 6265 c0 -390 1 -552 2 -358 2 193 2 513 0
710 -1 197 -2 39 -2 -352z M11064 5625 c0 -77 2 -107 3 -67 2 40 2 103 0 140
-2 37 -3 4 -3 -73z M8115 2958 l-60 -63 63 60 c58 55 67 65 59 65 -1 0 -29
-28 -62 -62z M7520 2385 c-24 -25 -42 -45 -39 -45 3 0 25 20 49 45 24 25 42
45 39 45 -3 0 -25 -20 -49 -45z M6925 1798 l-170 -173 173 170 c160 158 177
175 169 175 -1 0 -79 -78 -172 -172z M5868 1623 c34 -2 88 -2 120 0 31 2 3 3
-63 3 -66 0 -92 -1 -57 -3z"/>
</g><g fill="#5293e2" stroke="none">
<path d="M6278 11513 c34 -2 90 -2 125 0 34 2 6 3 -63 3 -69 0 -97 -1 -62 -3z
M6018 11503 c12 -2 30 -2 40 0 9 3 -1 5 -23 4 -22 0 -30 -2 -17 -4z M8980
10465 c19 -19 36 -35 39 -35 3 0 -10 16 -29 35 -19 19 -36 35 -39 35 -3 0 10
-16 29 -35z M6243 9173 c15 -2 39 -2 55 0 15 2 2 4 -28 4 -30 0 -43 -2 -27 -4z
M6098 9163 c12 -2 32 -2 45 0 12 2 2 4 -23 4 -25 0 -35 -2 -22 -4z M6383 9163
c9 -2 25 -2 35 0 9 3 1 5 -18 5 -19 0 -27 -2 -17 -5z M6013 9153 c9 -2 25 -2
35 0 9 3 1 5 -18 5 -19 0 -27 -2 -17 -5z M6481 9156 c2 -2 31 -6 64 -9 37 -3
51 -2 35 3 -25 8 -107 13 -99 6z M6641 9136 c2 -2 27 -6 54 -9 32 -4 43 -3 30
3 -19 8 -93 14 -84 6z M7010 9070 c34 -11 60 -11 35 0 -11 5 -29 8 -40 8 -16
0 -15 -2 5 -8z M3047 8715 c-24 -50 -20 -58 4 -12 11 22 19 41 17 43 -3 2 -12
-12 -21 -31z M2871 8289 c-6 -18 -9 -34 -7 -36 2 -2 9 10 15 28 6 18 9 34 7
36 -2 2 -9 -10 -15 -28z M9832 7550 c0 -19 2 -27 5 -17 2 9 2 25 0 35 -3 9 -5
1 -5 -18z M9843 7415 c0 -22 2 -30 4 -17 2 12 2 30 0 40 -3 9 -5 -1 -4 -23z
M2694 7155 c0 -132 2 -185 3 -117 2 68 2 176 0 240 -1 64 -3 9 -3 -123z
M11063 6960 c0 -30 2 -43 4 -27 2 15 2 39 0 55 -2 15 -4 2 -4 -28z M1474 6710
c0 -146 2 -205 3 -132 2 72 2 192 0 265 -1 72 -3 13 -3 -133z M9843 6670 c0
-30 2 -43 4 -27 2 15 2 39 0 55 -2 15 -4 2 -4 -28z M3483 6605 c0 -33 2 -45 4
-27 2 18 2 45 0 60 -2 15 -4 0 -4 -33z M3484 6350 c0 -52 1 -74 3 -47 2 26 2
68 0 95 -2 26 -3 4 -3 -48z M1474 6275 c0 -88 2 -123 3 -77 2 46 2 118 0 160
-1 42 -3 5 -3 -83z M9843 6275 c0 -44 2 -61 4 -37 2 23 2 59 0 80 -2 20 -4 1
-4 -43z M1474 5800 c0 -135 2 -190 3 -122 2 67 2 177 0 245 -1 67 -3 12 -3
-123z M3479 5848 c-2 -7 -2 -200 1 -428 l6 -415 2 428 c1 235 0 427 -2 427 -2
0 -5 -6 -7 -12z M9843 5395 c0 -44 2 -61 4 -37 2 23 2 59 0 80 -2 20 -4 1 -4
-43z M2684 5265 c0 -77 2 -107 3 -67 2 40 2 103 0 140 -2 37 -3 4 -3 -73z
M9053 5105 c0 -38 2 -53 4 -32 2 20 2 52 0 70 -2 17 -4 1 -4 -38z M9854 4925
c0 -132 2 -185 3 -117 2 68 2 176 0 240 -1 64 -3 9 -3 -123z M8089 2933 l-34
-38 38 34 c34 33 42 41 34 41 -2 0 -19 -17 -38 -37z M8601 2826 c2 -2 29 -6
59 -9 34 -3 47 -2 35 3 -19 8 -103 14 -94 6z M8910 2795 c-25 -13 -41 -24 -37
-25 11 0 87 39 87 45 0 7 0 7 -50 -20z M6820 1693 l-65 -68 68 65 c62 60 72
70 64 70 -1 0 -32 -30 -67 -67z M5828 1623 c12 -2 30 -2 40 0 9 3 -1 5 -23 4
-22 0 -30 -2 -17 -4z"/>
</g>
</g>
</svg>
